<svg width="20" height="16" viewBox="0 0 20 16" fill="none" xmlns="http://www.w3.org/2000/svg">
<path d="M10.25 8.18334C10.6946 7.79845 11.0513 7.32241 11.2957 6.78752C11.5402 6.25264 11.6667 5.67143 11.6667 5.08334C11.6667 3.97827 11.2277 2.91846 10.4463 2.13706C9.66487 1.35566 8.60506 0.916672 7.49999 0.916672C6.39493 0.916672 5.33512 1.35566 4.55372 2.13706C3.77232 2.91846 3.33333 3.97827 3.33333 5.08334C3.33332 5.67143 3.45983 6.25264 3.70427 6.78752C3.9487 7.32241 4.30535 7.79845 4.74999 8.18334C3.58344 8.71158 2.59372 9.56461 1.89915 10.6405C1.20457 11.7163 0.834555 12.9694 0.833328 14.25C0.833328 14.471 0.921126 14.683 1.07741 14.8393C1.23369 14.9955 1.44565 15.0833 1.66666 15.0833C1.88768 15.0833 2.09964 14.9955 2.25592 14.8393C2.4122 14.683 2.49999 14.471 2.49999 14.25C2.49999 12.9239 3.02678 11.6522 3.96446 10.7145C4.90214 9.77679 6.17391 9.25001 7.49999 9.25001C8.82608 9.25001 10.0978 9.77679 11.0355 10.7145C11.9732 11.6522 12.5 12.9239 12.5 14.25C12.5 14.471 12.5878 14.683 12.7441 14.8393C12.9004 14.9955 13.1123 15.0833 13.3333 15.0833C13.5543 15.0833 13.7663 14.9955 13.9226 14.8393C14.0789 14.683 14.1667 14.471 14.1667 14.25C14.1654 12.9694 13.7954 11.7163 13.1008 10.6405C12.4063 9.56461 11.4165 8.71158 10.25 8.18334ZM7.49999 7.58334C7.00554 7.58334 6.52219 7.43672 6.11107 7.16201C5.69995 6.88731 5.37952 6.49686 5.1903 6.04005C5.00108 5.58323 4.95157 5.08057 5.04803 4.59561C5.1445 4.11066 5.3826 3.6652 5.73223 3.31557C6.08186 2.96594 6.52732 2.72784 7.01227 2.63138C7.49722 2.53491 7.99989 2.58442 8.4567 2.77364C8.91352 2.96286 9.30396 3.28329 9.57867 3.69441C9.85337 4.10554 9.99999 4.58889 9.99999 5.08334C9.99999 5.74638 9.7366 6.38227 9.26776 6.85111C8.79892 7.31995 8.16304 7.58334 7.49999 7.58334ZM15.6167 7.85001C16.15 7.24945 16.4983 6.50755 16.6198 5.71362C16.7413 4.91969 16.6308 4.10757 16.3015 3.37501C15.9722 2.64244 15.4382 2.02067 14.7637 1.58452C14.0893 1.14838 13.3032 0.916457 12.5 0.916672C12.279 0.916672 12.067 1.00447 11.9107 1.16075C11.7545 1.31703 11.6667 1.52899 11.6667 1.75001C11.6667 1.97102 11.7545 2.18298 11.9107 2.33926C12.067 2.49554 12.279 2.58334 12.5 2.58334C13.163 2.58334 13.7989 2.84673 14.2678 3.31557C14.7366 3.78441 15 4.4203 15 5.08334C14.9988 5.52104 14.8827 5.95076 14.6634 6.32952C14.444 6.70829 14.1291 7.02282 13.75 7.24167C13.6264 7.31294 13.5233 7.41473 13.4503 7.53729C13.3773 7.65985 13.3371 7.79909 13.3333 7.94167C13.3298 8.08314 13.3624 8.22317 13.428 8.34855C13.4937 8.47394 13.5901 8.58055 13.7083 8.65834L14.0333 8.87501L14.1417 8.93334C15.1462 9.40977 15.9936 10.1633 16.5841 11.1053C17.1747 12.0472 17.4838 13.1383 17.475 14.25C17.475 14.471 17.5628 14.683 17.7191 14.8393C17.8754 14.9955 18.0873 15.0833 18.3083 15.0833C18.5293 15.0833 18.7413 14.9955 18.8976 14.8393C19.0539 14.683 19.1417 14.471 19.1417 14.25C19.1485 12.9712 18.8282 11.7119 18.2112 10.5917C17.5943 9.47156 16.7011 8.52777 15.6167 7.85001Z" fill="#717986"/>
</svg>
