<svg width="20" height="20" viewBox="0 0 20 20" fill="none" xmlns="http://www.w3.org/2000/svg">
<path d="M18.3333 12.5H16.6667V10C16.6667 9.77899 16.5789 9.56703 16.4226 9.41075C16.2663 9.25447 16.0543 9.16667 15.8333 9.16667H10.8333V7.5H12.5C12.721 7.5 12.933 7.4122 13.0892 7.25592C13.2455 7.09964 13.3333 6.88768 13.3333 6.66667V1.66667C13.3333 1.44566 13.2455 1.23369 13.0892 1.07741C12.933 0.921133 12.721 0.833336 12.5 0.833336H7.49999C7.27898 0.833336 7.06702 0.921133 6.91074 1.07741C6.75446 1.23369 6.66666 1.44566 6.66666 1.66667V6.66667C6.66666 6.88768 6.75446 7.09964 6.91074 7.25592C7.06702 7.4122 7.27898 7.5 7.49999 7.5H9.16666V9.16667H4.16666C3.94565 9.16667 3.73369 9.25447 3.57741 9.41075C3.42113 9.56703 3.33333 9.77899 3.33333 10V12.5H1.66666C1.44565 12.5 1.23369 12.5878 1.07741 12.7441C0.921126 12.9004 0.833328 13.1123 0.833328 13.3333V18.3333C0.833328 18.5543 0.921126 18.7663 1.07741 18.9226C1.23369 19.0789 1.44565 19.1667 1.66666 19.1667H6.66666C6.88767 19.1667 7.09964 19.0789 7.25592 18.9226C7.4122 18.7663 7.49999 18.5543 7.49999 18.3333V13.3333C7.49999 13.1123 7.4122 12.9004 7.25592 12.7441C7.09964 12.5878 6.88767 12.5 6.66666 12.5H4.99999V10.8333H15V12.5H13.3333C13.1123 12.5 12.9004 12.5878 12.7441 12.7441C12.5878 12.9004 12.5 13.1123 12.5 13.3333V18.3333C12.5 18.5543 12.5878 18.7663 12.7441 18.9226C12.9004 19.0789 13.1123 19.1667 13.3333 19.1667H18.3333C18.5543 19.1667 18.7663 19.0789 18.9226 18.9226C19.0789 18.7663 19.1667 18.5543 19.1667 18.3333V13.3333C19.1667 13.1123 19.0789 12.9004 18.9226 12.7441C18.7663 12.5878 18.5543 12.5 18.3333 12.5ZM5.83333 14.1667V17.5H2.49999V14.1667H5.83333ZM8.33333 5.83334V2.5H11.6667V5.83334H8.33333ZM17.5 17.5H14.1667V14.1667H17.5V17.5Z" fill="#717986"/>
</svg>
