<svg width="18" height="18" viewBox="0 0 18 18" fill="none" xmlns="http://www.w3.org/2000/svg">
<path d="M7.33334 9.83334H1.50001C1.27899 9.83334 1.06703 9.92113 0.910749 10.0774C0.754469 10.2337 0.666672 10.4457 0.666672 10.6667V16.5C0.666672 16.721 0.754469 16.933 0.910749 17.0893C1.06703 17.2455 1.27899 17.3333 1.50001 17.3333H7.33334C7.55435 17.3333 7.76631 17.2455 7.92259 17.0893C8.07887 16.933 8.16667 16.721 8.16667 16.5V10.6667C8.16667 10.4457 8.07887 10.2337 7.92259 10.0774C7.76631 9.92113 7.55435 9.83334 7.33334 9.83334ZM6.50001 15.6667H2.33334V11.5H6.50001V15.6667ZM16.5 0.666668H10.6667C10.4457 0.666668 10.2337 0.754465 10.0774 0.910746C9.92114 1.06703 9.83334 1.27899 9.83334 1.5V7.33333C9.83334 7.55435 9.92114 7.76631 10.0774 7.92259C10.2337 8.07887 10.4457 8.16667 10.6667 8.16667H16.5C16.721 8.16667 16.933 8.07887 17.0893 7.92259C17.2455 7.76631 17.3333 7.55435 17.3333 7.33333V1.5C17.3333 1.27899 17.2455 1.06703 17.0893 0.910746C16.933 0.754465 16.721 0.666668 16.5 0.666668V0.666668ZM15.6667 6.5H11.5V2.33333H15.6667V6.5ZM16.5 9.83334H10.6667C10.4457 9.83334 10.2337 9.92113 10.0774 10.0774C9.92114 10.2337 9.83334 10.4457 9.83334 10.6667V16.5C9.83334 16.721 9.92114 16.933 10.0774 17.0893C10.2337 17.2455 10.4457 17.3333 10.6667 17.3333H16.5C16.721 17.3333 16.933 17.2455 17.0893 17.0893C17.2455 16.933 17.3333 16.721 17.3333 16.5V10.6667C17.3333 10.4457 17.2455 10.2337 17.0893 10.0774C16.933 9.92113 16.721 9.83334 16.5 9.83334ZM15.6667 15.6667H11.5V11.5H15.6667V15.6667ZM7.33334 0.666668H1.50001C1.27899 0.666668 1.06703 0.754465 0.910749 0.910746C0.754469 1.06703 0.666672 1.27899 0.666672 1.5V7.33333C0.666672 7.55435 0.754469 7.76631 0.910749 7.92259C1.06703 8.07887 1.27899 8.16667 1.50001 8.16667H7.33334C7.55435 8.16667 7.76631 8.07887 7.92259 7.92259C8.07887 7.76631 8.16667 7.55435 8.16667 7.33333V1.5C8.16667 1.27899 8.07887 1.06703 7.92259 0.910746C7.76631 0.754465 7.55435 0.666668 7.33334 0.666668V0.666668ZM6.50001 6.5H2.33334V2.33333H6.50001V6.5Z" fill="#717986"/>
</svg>
