<svg xmlns="http://www.w3.org/2000/svg" width="72" height="72" viewBox="0 0 72 72">
<path id="Union_1" data-name="Union 1" d="M6.084,64.447A7.606,7.606,0,1,1,13.69,72,7.579,7.579,0,0,1,6.084,64.447Zm45.127-4.28a7.352,7.352,0,1,1,7.352,7.3A7.326,7.326,0,0,1,51.211,60.168ZM31.437,49.594a7.352,7.352,0,1,1,7.352,7.3A7.327,7.327,0,0,1,31.437,49.594ZM18.761,39.021a3.8,3.8,0,1,1,3.8,3.776A3.79,3.79,0,0,1,18.761,39.021Zm28.394-1.259A3.042,3.042,0,1,1,50.2,40.783,3.031,3.031,0,0,1,47.155,37.762Zm6.085-9.818a6.338,6.338,0,1,1,6.338,6.294A6.316,6.316,0,0,1,53.24,27.944ZM0,27.692a6.085,6.085,0,1,1,6.084,6.042A6.063,6.063,0,0,1,0,27.692Zm40.056,0a4.056,4.056,0,1,1,4.056,4.028A4.042,4.042,0,0,1,40.056,27.692ZM20.789,24.168a5.578,5.578,0,1,1,5.577,5.539A5.558,5.558,0,0,1,20.789,24.168ZM65.915,20.14a3.042,3.042,0,1,1,3.042,3.021A3.032,3.032,0,0,1,65.915,20.14ZM24.338,6.8a6.845,6.845,0,1,1,6.845,6.8A6.821,6.821,0,0,1,24.338,6.8Z" fill="#f62006"></path>
</svg>